<svg width="24" height="24" viewBox="0 0 24 24" fill="none" xmlns="http://www.w3.org/2000/svg">
<path d="M8.31738 4H15.6826C15.9485 4 16.204 4.10553 16.3916 4.29395L19.709 7.625C19.8956 7.81241 20 8.06657 20 8.33105V13.0498C20 13.3143 19.8956 13.5685 19.709 13.7559L16.3916 17.0869C16.2039 17.2753 15.9485 17.3809 15.6826 17.3809H6.69141C5.74162 17.3809 4.84812 17.831 4.28223 18.5938L4 18.9736V8.33105C4 8.06657 4.10439 7.81241 4.29102 7.625L7.6084 4.29395C7.79605 4.10553 8.05146 4 8.31738 4Z" stroke="#666666" stroke-width="2"/>
<circle cx="12" cy="11" r="1" fill="#666666"/>
<circle cx="8" cy="11" r="1" fill="#666666"/>
<circle cx="16" cy="11" r="1" fill="#666666"/>
</svg>
