<svg width="24" height="24" viewBox="0 0 24 24" fill="none" xmlns="http://www.w3.org/2000/svg">
<mask id="path-1-inside-1_2273_28116" fill="white">
<path d="M14.9854 4C15.3083 4 15.6111 4.15616 15.7988 4.41895L17.8135 7.23926C17.9346 7.40882 18 7.61194 18 7.82031V18C18 18.5523 17.5523 19 17 19H7C6.44772 19 6 18.5523 6 18V7.82031C6.00003 7.61194 6.06541 7.40882 6.18652 7.23926L8.20117 4.41895C8.38888 4.15616 8.6917 4 9.01465 4H14.9854Z"/>
</mask>
<path d="M14.9854 4C15.3083 4 15.6111 4.15616 15.7988 4.41895L17.8135 7.23926C17.9346 7.40882 18 7.61194 18 7.82031V18C18 18.5523 17.5523 19 17 19H7C6.44772 19 6 18.5523 6 18V7.82031C6.00003 7.61194 6.06541 7.40882 6.18652 7.23926L8.20117 4.41895C8.38888 4.15616 8.6917 4 9.01465 4H14.9854Z" fill="white"/>
<path d="M15.7988 4.41895L14.1714 5.58145L14.1714 5.58148L15.7988 4.41895ZM17.8135 7.23926L19.4409 6.07678L19.4409 6.07673L17.8135 7.23926ZM18 7.82031H20V7.82001L18 7.82031ZM6 18H8H6ZM6 7.82031L4 7.82001V7.82031H6ZM6.18652 7.23926L4.55909 6.07673L4.55906 6.07678L6.18652 7.23926ZM8.20117 4.41895L9.8286 5.58148L9.82862 5.58145L8.20117 4.41895ZM14.9854 4V6C14.661 6 14.3583 5.84312 14.1714 5.58145L15.7988 4.41895L17.4263 3.25644C16.8639 2.4692 15.9556 2 14.9854 2V4ZM15.7988 4.41895L14.1714 5.58148L16.186 8.40179L17.8135 7.23926L19.4409 6.07673L17.4263 3.25642L15.7988 4.41895ZM17.8135 7.23926L16.186 8.40173C16.0659 8.23358 16 8.03071 16 7.82062L18 7.82031L20 7.82001C19.9999 7.19317 19.8033 6.58405 19.4409 6.07678L17.8135 7.23926ZM18 7.82031H16V18H18H20V7.82031H18ZM18 18H16C16 17.4477 16.4477 17 17 17V19V21C18.6569 21 20 19.6569 20 18H18ZM17 19V17H7V19V21H17V19ZM7 19V17C7.55229 17 8 17.4477 8 18H6H4C4 19.6569 5.34315 21 7 21V19ZM6 18H8V7.82031H6H4V18H6ZM6 7.82031L8 7.82062C7.99997 8.03071 7.9341 8.23358 7.81399 8.40173L6.18652 7.23926L4.55906 6.07678C4.19672 6.58405 4.0001 7.19317 4 7.82001L6 7.82031ZM6.18652 7.23926L7.81395 8.40179L9.8286 5.58148L8.20117 4.41895L6.57374 3.25642L4.55909 6.07673L6.18652 7.23926ZM8.20117 4.41895L9.82862 5.58145C9.64171 5.84311 9.33897 6 9.01465 6V4V2C8.04443 2 7.13606 2.4692 6.57373 3.25644L8.20117 4.41895ZM9.01465 4V6H14.9854V4V2H9.01465V4Z" fill="white" mask="url(#path-1-inside-1_2273_28116)"/>
<rect x="10.5" y="2" width="3" height="4" rx="1.5" fill="white"/>
<path d="M14 20C14 21.1046 13.1046 22 12 22C10.8954 22 10 21.1046 10 20H14Z" fill="white"/>
<rect x="4" y="17" width="16" height="2" rx="1" fill="white"/>
</svg>
