<svg width="24" height="24" viewBox="0 0 24 24" fill="none" xmlns="http://www.w3.org/2000/svg">
<path d="M5.62674 15.7324C5.67031 15.9077 5.76018 16.0682 5.88748 16.1963L7.68045 18H2.49978C1.84994 17.9999 1.3724 17.3895 1.52908 16.7588L1.71756 16L3.67556 7.88086L5.62674 15.7324Z" fill="#333333"/>
<path d="M19.3185 6C19.7779 6.00001 20.1784 6.31296 20.2892 6.75879L22.4708 15.541C22.5429 15.8316 22.4808 16.1398 22.3019 16.3799L21.3937 17.5977C21.2049 17.8508 20.9077 18 20.5919 18H9.08996C8.82366 18 8.56771 17.894 8.38 17.7051L6.88098 16.1963C6.7537 16.0682 6.66284 15.9077 6.61926 15.7324L4.50988 7.24121C4.35321 6.6105 4.83074 6.00013 5.48059 6H19.3185ZM16.6476 9.53809C16.3938 9.24786 15.9545 9.21921 15.6661 9.47461L12.7384 12.0674L11.6173 11.0742C11.3289 10.8188 10.8887 10.8475 10.6349 11.1377C10.3813 11.4279 10.41 11.8706 10.6984 12.126L12.2784 13.5254C12.5411 13.758 12.9347 13.758 13.1974 13.5254L16.5851 10.5254C16.8734 10.27 16.9012 9.8283 16.6476 9.53809Z" fill="black"/>
</svg>
