<svg width="24" height="24" viewBox="0 0 24 24" fill="none" xmlns="http://www.w3.org/2000/svg">
<path d="M11.5 2.28864C11.8093 2.11009 12.1907 2.11025 12.5 2.28864L18.4287 5.71149C18.7381 5.89012 18.9287 6.22045 18.9287 6.5777V13.6441C18.9287 13.8742 18.8494 14.0975 18.7041 14.2759L12.7754 21.5494C12.3753 22.04 11.6257 22.04 11.2256 21.5494L5.29688 14.2759C5.15152 14.0975 5.07227 13.8742 5.07227 13.6441V6.5777C5.07227 6.22043 5.26287 5.89012 5.57227 5.71149L11.5 2.28864ZM12.5 7.28864C12.1906 7.11006 11.8094 7.11006 11.5 7.28864L9.90234 8.21149C9.59294 8.39012 9.40234 8.72043 9.40234 9.0777V10.9224C9.40234 11.2797 9.59294 11.61 9.90234 11.7886L11.5 12.7115C11.8094 12.8901 12.1906 12.8901 12.5 12.7115L14.0977 11.7886C14.4071 11.61 14.5977 11.2797 14.5977 10.9224V9.0777C14.5977 8.72043 14.4071 8.39012 14.0977 8.21149L12.5 7.28864Z" fill="black"/>
</svg>
