<svg width="24" height="24" viewBox="0 0 24 24" fill="none" xmlns="http://www.w3.org/2000/svg">
<path d="M15.6855 3C16.2156 3 16.7246 3.21039 17.0996 3.58496L20.4131 6.89551C20.7887 7.27065 21 7.77971 21 8.31055V12.9893C21 13.5201 20.7886 14.0292 20.4131 14.4043L17.0996 17.7148C16.7246 18.0894 16.2156 18.2998 15.6855 18.2998H5.85059C5.74426 18.2999 5.64236 18.3426 5.56738 18.418L3.85449 20.1406C3.53993 20.4569 3.00006 20.2341 3 19.7881V8.31055C3 7.77971 3.21134 7.27065 3.58691 6.89551L6.90039 3.58496C7.2754 3.21039 7.78442 3 8.31445 3H15.6855ZM8.40039 10.2002C7.90346 10.2002 7.50021 10.6027 7.5 11.0996C7.5 11.5967 7.90333 12 8.40039 12C8.89727 11.9998 9.2998 11.5965 9.2998 11.0996C9.29959 10.6029 8.89714 10.2004 8.40039 10.2002ZM12 10.2002C11.5031 10.2002 11.0999 10.6028 11.0996 11.0996C11.0996 11.5967 11.5029 12 12 12C12.4971 12 12.9004 11.5967 12.9004 11.0996C12.9001 10.6028 12.4969 10.2002 12 10.2002ZM15.5996 10.2002C15.1029 10.2004 14.7005 10.6029 14.7002 11.0996C14.7002 11.5965 15.1027 11.9998 15.5996 12C16.0967 12 16.5 11.5967 16.5 11.0996C16.4997 10.6028 16.0965 10.2002 15.5996 10.2002Z" fill="black"/>
</svg>
