<svg width="24" height="24" viewBox="0 0 24 24" fill="none" xmlns="http://www.w3.org/2000/svg">
<mask id="path-1-inside-1_1183_11125" fill="white">
<path d="M19 18C19.5523 18 20 18.4477 20 19V20C20 20.5523 19.5523 21 19 21H5C4.44772 21 4 20.5523 4 20V19C4 18.4477 4.44772 18 5 18H19ZM14.0859 7C14.3511 7.00004 14.6055 7.10547 14.793 7.29297L17.707 10.207C17.8945 10.3945 18 10.6489 18 10.9141V16.5C18 17.0523 17.5523 17.5 17 17.5H7C6.44772 17.5 6 17.0523 6 16.5V10.9141C6.00004 10.6489 6.10547 10.3945 6.29297 10.207L9.20703 7.29297C9.39453 7.10547 9.6489 7.00004 9.91406 7H14.0859Z"/>
</mask>
<path d="M14.0859 7L14.0862 5H14.0859V7ZM14.793 7.29297L13.3788 8.70718L13.3788 8.70718L14.793 7.29297ZM17.707 10.207L16.2928 11.6212L16.2928 11.6212L17.707 10.207ZM18 10.9141H20V10.9138L18 10.9141ZM6 16.5H8H6ZM6 10.9141L4 10.9138V10.9141H6ZM6.29297 10.207L7.70718 11.6212L7.70718 11.6212L6.29297 10.207ZM9.20703 7.29297L10.6212 8.70718L10.6212 8.70718L9.20703 7.29297ZM9.91406 7V5H9.91376L9.91406 7ZM19 18V20C18.4477 20 18 19.5523 18 19H20H22C22 17.3431 20.6569 16 19 16V18ZM20 19H18V20H20H22V19H20ZM20 20H18C18 19.4477 18.4477 19 19 19V21V23C20.6569 23 22 21.6569 22 20H20ZM19 21V19H5V21V23H19V21ZM5 21V19C5.55228 19 6 19.4477 6 20H4H2C2 21.6569 3.34315 23 5 23V21ZM4 20H6V19H4H2V20H4ZM4 19H6C6 19.5523 5.55228 20 5 20V18V16C3.34315 16 2 17.3431 2 19H4ZM5 18V20H19V18V16H5V18ZM14.0859 7L14.0856 9C13.8202 8.99996 13.5661 8.89452 13.3788 8.70718L14.793 7.29297L16.2072 5.87876C15.6448 5.31641 14.882 5.00012 14.0862 5L14.0859 7ZM14.793 7.29297L13.3788 8.70718L16.2928 11.6212L17.707 10.207L19.1212 8.79282L16.2072 5.87876L14.793 7.29297ZM17.707 10.207L16.2928 11.6212C16.1055 11.4339 16 11.1797 16 10.9144L18 10.9141L20 10.9138C19.9999 10.1181 19.6836 9.35516 19.1212 8.79281L17.707 10.207ZM18 10.9141H16V16.5H18H20V10.9141H18ZM18 16.5H16C16 15.9477 16.4477 15.5 17 15.5V17.5V19.5C18.6569 19.5 20 18.1569 20 16.5H18ZM17 17.5V15.5H7V17.5V19.5H17V17.5ZM7 17.5V15.5C7.55229 15.5 8 15.9477 8 16.5H6H4C4 18.1569 5.34315 19.5 7 19.5V17.5ZM6 16.5H8V10.9141H6H4V16.5H6ZM6 10.9141L8 10.9144C7.99996 11.1798 7.89452 11.4339 7.70718 11.6212L6.29297 10.207L4.87876 8.79282C4.31641 9.35516 4.00012 10.118 4 10.9138L6 10.9141ZM6.29297 10.207L7.70718 11.6212L10.6212 8.70718L9.20703 7.29297L7.79282 5.87876L4.87876 8.79282L6.29297 10.207ZM9.20703 7.29297L10.6212 8.70718C10.4339 8.89452 10.1798 8.99996 9.91436 9L9.91406 7L9.91376 5C9.11805 5.00012 8.35516 5.31641 7.79282 5.87876L9.20703 7.29297ZM9.91406 7V9H14.0859V7V5H9.91406V7Z" fill="#CCCCCC" mask="url(#path-1-inside-1_1183_11125)"/>
<path d="M12 5V3" stroke="#CCCCCC" stroke-width="2" stroke-linecap="round"/>
<path d="M17.5 7.5L19.5 5.5" stroke="#CCCCCC" stroke-width="2" stroke-linecap="round"/>
<path d="M6.5 7.5L4.5 5.5" stroke="#CCCCCC" stroke-width="2" stroke-linecap="round"/>
</svg>
