<svg width="24" height="24" viewBox="0 0 24 24" fill="none" xmlns="http://www.w3.org/2000/svg">
<path d="M19.397 18.6206C19.191 19.178 18.7473 19.6149 18.187 19.813L12.6675 21.7651C12.6257 21.7799 12.583 21.7913 12.5405 21.8032L15.5278 17.9634C15.7965 17.6052 15.981 17.1905 16.0689 16.7515L16.2192 16.0005H20.3648L19.397 18.6206ZM7.92921 16.7515C8.01708 17.1906 8.20251 17.6051 8.4712 17.9634L11.4566 21.8022C11.4154 21.7906 11.374 21.7795 11.3335 21.7651L5.79249 19.8052C5.24466 19.6114 4.80775 19.1891 4.5962 18.6479L3.56202 16.0005H7.77882L7.92921 16.7515ZM14.1079 16.3599C14.0786 16.506 14.0167 16.644 13.9273 16.7632L11.9995 19.3335L10.0718 16.7632C9.98235 16.6439 9.92047 16.506 9.89112 16.3599L9.81886 16.0005H14.1802L14.1079 16.3599ZM7.09718 11.4116C7.0196 11.7998 7.01959 12.2002 7.09718 12.5884L7.3794 14.0005H2.78175L2.28468 12.728C2.10201 12.2603 2.10208 11.7407 2.28468 11.2729L2.78175 10.0005H7.3794L7.09718 11.4116ZM14.9409 11.8042C14.9668 11.9336 14.9668 12.0674 14.9409 12.1968L14.5796 14.0005H9.41944L9.05812 12.1968C9.03225 12.0675 9.03231 11.9335 9.05812 11.8042L9.41944 10.0005H14.5796L14.9409 11.8042ZM21.7007 10.8481C21.8932 11.3132 21.9034 11.834 21.729 12.3062L21.103 14.0005H16.6196L16.9019 12.5884C16.9794 12.2002 16.9795 11.7998 16.9019 11.4116L16.6196 10.0005H21.3491L21.7007 10.8481ZM8.4712 6.0376C8.20264 6.39584 8.01702 6.81047 7.92921 7.24951L7.77882 8.00049H3.56202L4.5962 5.35303C4.80771 4.81156 5.24442 4.38861 5.79249 4.19482L11.3335 2.23584C11.3741 2.22149 11.4153 2.2094 11.4566 2.19775L8.4712 6.0376ZM13.9273 7.23779C14.0167 7.35713 14.0786 7.49488 14.1079 7.64111L14.1802 8.00049H9.81886L9.89112 7.64111C9.9204 7.49496 9.98241 7.35708 10.0718 7.23779L11.9995 4.6665L13.9273 7.23779ZM12.6675 2.23584L18.231 4.20361C18.7656 4.39269 19.1956 4.79978 19.4126 5.32373L20.521 8.00049H16.2192L16.0689 7.24951C15.981 6.81041 15.7965 6.39588 15.5278 6.0376L12.5405 2.19678C12.583 2.2087 12.6257 2.22105 12.6675 2.23584Z" fill="white"/>
</svg>
