<svg width="24" height="24" viewBox="0 0 24 24" fill="none" xmlns="http://www.w3.org/2000/svg">
<path d="M19.321 5.91216H19.3214L13.3476 2.39807C12.4454 1.86731 11.3338 1.86731 10.4315 2.39807L4.45795 5.91216C3.55594 6.44292 3 7.42395 3 8.48548V15.5143C3 16.5758 3.55594 17.5569 4.45795 18.0876L10.4315 21.6019C11.3338 22.1327 12.4454 22.1327 13.3476 21.6019L14.828 20.731V16.6911C14.828 16.3735 14.964 15.7248 15.1948 15.3767C15.256 15.2758 15.3245 15.1966 15.3995 15.1527L17.1597 14.1169C17.3728 13.9916 17.6247 14.0723 17.745 14.2587C17.804 14.3329 17.8404 14.4274 17.8404 14.5346V18.9588L19.321 18.0876C20.223 17.5569 20.779 16.5758 20.779 15.5143V8.48548C20.779 7.42395 20.223 6.44292 19.321 5.91216ZM10.5671 19.3913C10.5671 19.7331 10.2031 19.9464 9.91201 19.7755L4.79496 16.7745C4.45709 16.5765 4.24893 16.2102 4.24893 15.814V9.8323C4.24893 9.49056 4.61288 9.27725 4.90421 9.44812L10.021 12.4492C10.3589 12.6474 10.5671 13.0134 10.5671 13.4098V19.3913ZM15.3204 6.95313L13.828 7.28042C13.3494 7.38522 12.9313 7.68233 12.6674 8.10523L12.0692 9.0635C11.9852 9.19783 11.7936 9.19783 11.7093 9.0635L11.1112 8.10523C10.8472 7.68233 10.4292 7.38522 9.95058 7.28042L8.45815 6.95313C8.23297 6.9039 8.23297 6.57376 8.45815 6.52453L9.95058 6.19723C10.4292 6.09244 10.8472 5.79533 11.1112 5.37242L11.7093 4.41416C11.7934 4.27982 11.9849 4.27982 12.0692 4.41416L12.6674 5.37242C12.9313 5.79533 13.3494 6.09244 13.828 6.19723L15.3204 6.52453C15.5458 6.57376 15.5458 6.9039 15.3204 6.95313Z" fill="black"/>
<path d="M7.54769 12.9061L7.77631 13.764C7.87199 14.1226 8.07583 14.4809 8.3342 14.7439L8.95241 15.3738C9.04809 15.4716 9.04809 15.63 8.95241 15.6153L8.3342 15.5215C8.07583 15.4819 7.87199 15.6013 7.77631 15.8481L7.54769 16.4382C7.51235 16.5298 7.37659 16.4502 7.34126 16.3172L7.11263 15.4593C7.01696 15.1007 6.81311 14.7426 6.55475 14.4794L5.93675 13.85C5.84107 13.7522 5.84107 13.5938 5.93675 13.6084L6.55518 13.7023C6.81354 13.7419 7.01739 13.6224 7.11306 13.3756L7.34169 12.7856C7.37703 12.6939 7.51278 12.7736 7.54812 12.9066L7.54769 12.9061Z" fill="black"/>
</svg>
