<svg width="20" height="20" viewBox="0 0 20 20" fill="none" xmlns="http://www.w3.org/2000/svg">
<path d="M7.09115 3.64603C7.34415 3.49065 7.66076 3.48188 7.9222 3.62259L11.6829 5.64896C11.9322 5.78326 12.2329 5.78174 12.4808 5.64505L15.431 4.01614C15.9862 3.70999 16.6662 4.11152 16.6663 4.74564V13.6734C16.6663 13.9782 16.5003 14.2588 16.2327 14.4048L12.4827 16.4507C12.234 16.5864 11.9327 16.5864 11.6839 16.4507L7.9183 14.396C7.65899 14.2548 7.34438 14.2617 7.09115 14.4136L4.59505 15.9107C4.03965 16.2437 3.33334 15.8435 3.33334 15.1958V6.42239C3.33335 6.13299 3.48335 5.86408 3.72982 5.71243L7.09115 3.64603ZM8.73177 5.67239C8.17655 5.37001 7.50033 5.77245 7.50033 6.40482V12.0054C7.50033 12.3104 7.6662 12.5918 7.93392 12.7378L10.8509 14.3286C11.4061 14.6313 12.083 14.2294 12.0833 13.5972V7.99564C12.0833 7.69068 11.9165 7.40924 11.6488 7.26321L8.73177 5.67239Z" fill="#5B4FF4"/>
</svg>
