<svg width="32" height="32" viewBox="0 0 32 32" fill="none" xmlns="http://www.w3.org/2000/svg">
<ellipse cx="16" cy="30" rx="5" ry="2" fill="black" fill-opacity="0.2"/>
<path d="M15.0075 2.46533C15.6222 2.11407 16.3771 2.11425 16.9919 2.46533L24.9919 7.0376C25.615 7.39368 25.9997 8.05621 25.9997 8.77393V18.188C25.9997 18.6519 25.8385 19.1014 25.5436 19.4595L17.5436 29.1743C16.7435 30.1453 15.2556 30.1456 14.4557 29.1743L6.45573 19.4595C6.16097 19.1014 5.99968 18.6518 5.99968 18.188V8.77393C5.99968 8.05636 6.38456 7.39374 7.00749 7.0376L15.0075 2.46533Z" fill="black" stroke="white" stroke-width="1.33333" stroke-linejoin="round"/>
<path d="M15.3383 9.71151C15.7483 9.47727 16.2515 9.47727 16.6614 9.71151L18.8281 10.9496C19.2435 11.187 19.4999 11.6288 19.4999 12.1073V14.5597C19.4999 15.0382 19.2435 15.48 18.8281 15.7174L16.6614 16.9555C16.2515 17.1897 15.7483 17.1897 15.3383 16.9555L13.1717 15.7174C12.7562 15.48 12.4999 15.0382 12.4999 14.5597V12.1073C12.4999 11.6288 12.7562 11.187 13.1717 10.9496L15.3383 9.71151Z" fill="white"/>
</svg>
