<svg width="20" height="20" viewBox="0 0 20 20" fill="none" xmlns="http://www.w3.org/2000/svg">
<path d="M9.58334 1.90803C9.84117 1.75917 10.1595 1.75917 10.4173 1.90803L15.3568 4.75959C15.6146 4.90843 15.7737 5.18362 15.7738 5.48127V11.3699C15.7738 11.5618 15.7075 11.7486 15.5863 11.8973L10.6468 17.9578C10.3134 18.3669 9.68832 18.3668 9.35482 17.9578L4.41439 11.8973C4.29319 11.7486 4.22689 11.5618 4.22689 11.3699V5.48127C4.22695 5.18362 4.3861 4.90843 4.64388 4.75959L9.58334 1.90803ZM10.4163 6.07405C10.1586 5.92538 9.84105 5.92529 9.58334 6.07405L8.2513 6.8426C7.99348 6.99147 7.83529 7.26754 7.83529 7.56526V9.10237C7.83529 9.39998 7.99364 9.67515 8.2513 9.82405L9.58334 10.5926C9.84116 10.7415 10.1585 10.7414 10.4163 10.5926L11.7484 9.82405C12.0062 9.67518 12.1654 9.40007 12.1654 9.10237V7.56526C12.1654 7.26754 12.0062 6.99146 11.7484 6.8426L10.4163 6.07405Z" fill="black"/>
</svg>
