<svg width="24" height="24" viewBox="0 0 24 24" fill="none" xmlns="http://www.w3.org/2000/svg">
<path d="M11.5 3.28868C11.8094 3.11004 12.1906 3.11004 12.5 3.28868L14.9641 4.71132C15.2735 4.88996 15.4641 5.22008 15.4641 5.57735V8.42265C15.4641 8.77992 15.2735 9.11004 14.9641 9.28868L12.5 10.7113C12.1906 10.89 11.8094 10.89 11.5 10.7113L9.0359 9.28868C8.7265 9.11004 8.5359 8.77992 8.5359 8.42265V5.57735C8.5359 5.22008 8.7265 4.88996 9.0359 4.71132L11.5 3.28868Z" fill="#5B4FF4"/>
<path d="M13.1818 20.4935C12.4271 20.817 11.5729 20.817 10.8182 20.4935L5.60608 18.2598C5.2384 18.1022 5 17.7406 5 17.3406L5 13C5 12.4477 5.44771 12 6 12L11.9998 12L18 12C18.5523 12 19 12.4477 19 13L19 17.3406C19 17.7406 18.7616 18.1022 18.3939 18.2597L13.1818 20.4935Z" fill="#5B4FF4"/>
</svg>
