<svg width="32" height="32" viewBox="0 0 32 32" fill="none" xmlns="http://www.w3.org/2000/svg">
<rect x="0.5" y="0.5" width="31" height="31" rx="15.5" fill="#F4F4F4"/>
<rect x="0.5" y="0.5" width="31" height="31" rx="15.5" stroke="#EEEEEE"/>
<circle cx="16" cy="17" r="3" fill="#666666"/>
<path d="M18.7324 7C18.8996 7 19.0557 7.08356 19.1484 7.22266L20.333 9H23.5859C23.8511 9.00004 24.1055 9.10547 24.293 9.29297L25.707 10.707C25.8945 10.8945 26 11.1489 26 11.4141V22.5859C26 22.8511 25.8945 23.1055 25.707 23.293L24.293 24.707C24.1055 24.8945 23.8511 25 23.5859 25H8.41406C8.1489 25 7.89453 24.8945 7.70703 24.707L6.29297 23.293C6.10547 23.1055 6.00004 22.8511 6 22.5859V11.4141C6.00004 11.1489 6.10547 10.8945 6.29297 10.707L7.70703 9.29297C7.89453 9.10547 8.1489 9.00004 8.41406 9H11.667L12.8516 7.22266C12.9443 7.08356 13.1004 7 13.2676 7H18.7324ZM16 12C13.2386 12 11 14.2386 11 17C11 19.7614 13.2386 22 16 22C18.7614 22 21 19.7614 21 17C21 14.2386 18.7614 12 16 12ZM22 12C21.4477 12 21 12.4477 21 13C21 13.5523 21.4477 14 22 14C22.5523 14 23 13.5523 23 13C23 12.4477 22.5523 12 22 12Z" fill="#666666"/>
</svg>
