<svg width="704" height="780" viewBox="0 0 704 780" fill="none" xmlns="http://www.w3.org/2000/svg">
<path d="M646.27 152.575H646.28L409.74 15.525C374.02 -5.175 329.99 -5.175 294.27 15.525L57.73 152.575C22.01 173.275 0 211.535 0 252.935V527.055C0 568.455 22.01 606.715 57.73 627.415L294.27 764.465C329.99 785.165 374.02 785.165 409.74 764.465L468.36 730.495V572.945C468.36 560.555 473.75 535.255 482.88 521.685C485.31 517.755 488.02 514.665 490.98 512.945L560.68 472.555C569.12 467.665 579.09 470.815 583.85 478.085C586.19 480.975 587.63 484.665 587.63 488.845V661.385L646.26 627.415C681.98 606.715 703.99 568.455 703.99 527.055V252.935C703.99 211.535 681.98 173.275 646.26 152.575H646.27ZM299.64 678.265C299.64 691.585 285.23 699.905 273.7 693.245L71.08 576.205C57.7 568.475 49.46 554.195 49.46 538.745V305.455C49.46 292.135 63.87 283.815 75.41 290.475L278.02 407.515C291.4 415.245 299.64 429.525 299.64 444.985V678.265ZM487.86 193.165L428.77 205.925C409.82 210.015 393.27 221.605 382.82 238.085L359.13 275.455C355.8 280.695 348.21 280.695 344.88 275.455L321.19 238.085C310.74 221.595 294.19 210.005 275.24 205.925L216.15 193.165C207.23 191.245 207.23 178.365 216.15 176.445L275.24 163.685C294.19 159.595 310.74 148.005 321.19 131.525L344.88 94.155C348.21 88.915 355.8 88.915 359.13 94.155L382.82 131.525C393.27 148.015 409.82 159.605 428.77 163.685L487.86 176.445C496.78 178.365 496.78 191.245 487.86 193.165Z" fill="black"/>
<path d="M180.08 425.345L189.13 458.805C192.92 472.795 200.99 486.765 211.22 497.025L235.7 521.595C239.49 525.405 239.49 531.585 235.7 531.015L211.22 527.355C200.99 525.815 192.92 530.475 189.13 540.095L180.08 563.105C178.68 566.675 173.31 563.575 171.9 558.395L162.85 524.935C159.06 510.945 150.99 496.985 140.76 486.715L116.29 462.165C112.5 458.355 112.5 452.175 116.29 452.745L140.78 456.405C151.01 457.945 159.08 453.285 162.87 443.665L171.92 420.655C173.32 417.085 178.69 420.185 180.1 425.365H180.09L180.08 425.345Z" fill="black"/>
</svg>
