<svg width="1024" height="1024" viewBox="0 0 1024 1024" fill="none" xmlns="http://www.w3.org/2000/svg">
<rect width="1024" height="1024" fill="black"/>
<path d="M806.279 274.577H806.289L569.746 137.525C534.025 116.825 489.995 116.825 454.274 137.525L217.731 274.577C182.01 295.277 160 333.538 160 374.938V649.062C160 690.462 182.01 728.723 217.731 749.423L454.274 886.475C489.995 907.175 534.025 907.175 569.746 886.475L628.367 852.504V694.952C628.367 682.562 633.757 657.262 642.887 643.692C645.317 639.762 648.027 636.672 650.987 634.952L720.688 594.561C729.128 589.671 739.098 592.821 743.858 600.091C746.198 602.981 747.638 606.671 747.638 610.851V783.393L806.269 749.423C841.99 728.723 864 690.462 864 649.062V374.938C864 333.538 841.99 295.277 806.269 274.577H806.279ZM459.644 800.274C459.644 813.594 445.234 821.914 433.704 815.254L231.081 698.212C217.701 690.482 209.461 676.202 209.461 660.752V427.459C209.461 414.139 223.871 405.819 235.411 412.479L438.024 529.52C451.404 537.25 459.644 551.531 459.644 566.991V800.274ZM647.867 315.167L588.776 327.928C569.826 332.018 553.276 343.608 542.825 360.088L519.135 397.459C515.805 402.699 508.215 402.699 504.885 397.459L481.194 360.088C470.744 343.598 454.194 332.008 435.244 327.928L376.153 315.167C367.233 313.247 367.233 300.367 376.153 298.447L435.244 285.687C454.194 281.597 470.744 270.007 481.194 253.527L504.885 216.156C508.215 210.916 515.805 210.916 519.135 216.156L542.825 253.527C553.276 270.017 569.826 281.607 588.776 285.687L647.867 298.447C656.787 300.367 656.787 313.247 647.867 315.167Z" fill="white"/>
<path d="M340.092 547.351L349.143 580.811C352.933 594.801 361.003 608.771 371.233 619.031L395.713 643.602C399.503 647.412 399.503 653.592 395.713 653.022L371.233 649.362C361.003 647.822 352.933 652.482 349.143 662.102L340.092 685.112C338.692 688.682 333.322 685.582 331.912 680.402L322.862 646.942C319.072 632.952 311.002 618.992 300.772 608.721L276.302 584.171C272.511 580.361 272.511 574.181 276.302 574.751L300.792 578.411C311.022 579.951 319.092 575.291 322.882 565.671L331.932 542.66C333.332 539.09 338.702 542.191 340.112 547.371H340.102L340.092 547.351Z" fill="white"/>
</svg>
